General
Complete name                    : Sherlock Holmes A Game of
                                   Shadows[2011]BRrip[Ac3-5.1]-=[CaLvIn]=-
Imdb                             : http://www.imdb.com/title/tt1515091
Format                           : AVI
Format/Info                      : Audio Video Interleave
File size                        : 894 MiB
Duration                         : 2h 8mn
Overall bit rate                 : 971 Kbps
Writing application              : VirtualDubMod 1.5.10.3 | www.virtualdub-fr.org || (build 2550/release)
Writing library                  : VirtualDubMod build 2550/release

Video
ID                               : 0
Format                           : MPEG-4 Visual
Format profile                   : Advanced Simple@L5
Format settings, BVOP            : 2
Format settings, QPel            : No
Format settings, GMC             : No warppoints
Format settings, Matrix          : Default (H.263)
Codec ID                         : XVID
Codec ID/Hint                    : XviD
Duration                         : 2h 8mn
Bit rate                         : 770 Kbps
Width                            : 720 pixels
Height                           : 304 pixels
Display aspect ratio             : 16:9
Frame rate                       : 23.976 fps
Color space                      : YUV
Chroma subsampling               : 4:2:0
Bit depth                        : 8 bits
Scan type                        : Progressive
Compression mode                 : Lossy
Bits/(Pixel*Frame)               : 0.147
Stream size                      : 709 MiB (79%)
Writing library                  : XviD 1.2.1 (UTC 2008-12-04)

Audio
ID                               : 1
Format                           : AC-3
Format/Info                      : Audio Coding 3
Mode extension                   : CM (complete main)
Codec ID                         : 2000
Duration                         : 2h 8mn
Bit rate mode                    : Constant
Bit rate                         : 192 Kbps
Channel(s)                       : 6 channels
Channel positions                : Front: L C R, Side: L R, LFE
Sampling rate                    : 48.0 KHz
Bit depth                        : 16 bits
Compression mode                 : Lossy
Stream size                      : 177 MiB (20%)
Alignment                        : Split accross interleaves
Interleave, duration             : 42 ms (1.00 video frame)
Interleave, preload duration     : 500 ms

ScreenShots :
 
http://img220.imageshack.us/img220/5897/72131154.png 
http://img254.imageshack.us/img254/3711/53132067.png 
http://img29.imageshack.us/img29/2105/74824262.png 
http://img191.imageshack.us/img191/9726/24299004.png 
http://img607.imageshack.us/img607/1800/98788597.png 
http://img341.imageshack.us/img341/1821/93268958.png 
http://img525.imageshack.us/img525/609/56980349.png 
http://img35.imageshack.us/img35/2424/90175711.png 
http://img838.imageshack.us/img838/1134/27136456.png 
http://img196.imageshack.us/img196/4854/54096858.png
